<mxfile host="app.diagrams.net" modified="2021-02-27T07:59:51.025Z" agent="5.0 (Windows NT 10.0; Win64; x64) AppleWebKit/537.36 (KHTML, like Gecko) Chrome/90.0.4427.5 Safari/537.36" etag="m2EowQf9Chw4T8_09bKS" version="14.4.3" type="github">
  <diagram id="JFPxDQYtW0pxYb11lqyh" name="Страница-1">
    <mxGraphModel dx="6017" dy="2500" grid="1" gridSize="10" guides="1" tooltips="1" connect="1" arrows="1" fold="1" page="1" pageScale="1" pageWidth="827" pageHeight="1169" math="0" shadow="0">
      <root>
        <mxCell id="0" />
        <mxCell id="1" parent="0" />
        <mxCell id="5Tj5UYbUs8pz7HhZuKM2-1" value="" style="strokeWidth=1;shadow=0;dashed=0;align=center;html=1;shape=mxgraph.mockup.containers.browserWindow;rSize=0;strokeColor=#666666;strokeColor2=#008cff;strokeColor3=#c4c4c4;mainText=,;recursiveResize=0;" parent="1" vertex="1">
          <mxGeometry x="-760" y="70" width="610" height="410" as="geometry" />
        </mxCell>
        <mxCell id="5Tj5UYbUs8pz7HhZuKM2-2" value="Page 1" style="strokeWidth=1;shadow=0;dashed=0;align=center;html=1;shape=mxgraph.mockup.containers.anchor;fontSize=17;fontColor=#666666;align=left;" parent="5Tj5UYbUs8pz7HhZuKM2-1" vertex="1">
          <mxGeometry x="60" y="12" width="110" height="26" as="geometry" />
        </mxCell>
        <mxCell id="5Tj5UYbUs8pz7HhZuKM2-3" value="https://www.draw.io" style="strokeWidth=1;shadow=0;dashed=0;align=center;html=1;shape=mxgraph.mockup.containers.anchor;rSize=0;fontSize=17;fontColor=#666666;align=left;" parent="5Tj5UYbUs8pz7HhZuKM2-1" vertex="1">
          <mxGeometry x="130" y="60" width="250" height="26" as="geometry" />
        </mxCell>
        <mxCell id="5Tj5UYbUs8pz7HhZuKM2-4" value="Петър Петров" style="html=1;shadow=0;dashed=0;shape=mxgraph.bootstrap.rrect;rSize=5;fillColor=#ffffff;strokeColor=#CED4DA;align=left;spacing=15;fontSize=14;fontColor=#6C767D;" parent="5Tj5UYbUs8pz7HhZuKM2-1" vertex="1">
          <mxGeometry x="20" y="160" width="360" height="40" as="geometry" />
        </mxCell>
        <mxCell id="5Tj5UYbUs8pz7HhZuKM2-5" value="" style="shape=triangle;direction=south;fillColor=#343A40;strokeColor=none;perimeter=none;" parent="5Tj5UYbUs8pz7HhZuKM2-4" vertex="1">
          <mxGeometry x="1" y="0.5" width="7" height="3" relative="1" as="geometry">
            <mxPoint x="-17" y="1" as="offset" />
          </mxGeometry>
        </mxCell>
        <mxCell id="5Tj5UYbUs8pz7HhZuKM2-6" value="" style="shape=triangle;direction=north;fillColor=#343A40;strokeColor=none;perimeter=none;" parent="5Tj5UYbUs8pz7HhZuKM2-4" vertex="1">
          <mxGeometry x="1" y="0.5" width="7" height="3" relative="1" as="geometry">
            <mxPoint x="-17" y="-4" as="offset" />
          </mxGeometry>
        </mxCell>
        <mxCell id="5Tj5UYbUs8pz7HhZuKM2-7" value="Тодор Тодоров" style="html=1;shadow=0;dashed=0;shape=mxgraph.bootstrap.rrect;rSize=5;fillColor=#ffffff;strokeColor=#CED4DA;align=left;spacing=15;fontSize=14;fontColor=#6C767D;" parent="5Tj5UYbUs8pz7HhZuKM2-1" vertex="1">
          <mxGeometry x="20" y="330" width="360" height="40" as="geometry" />
        </mxCell>
        <mxCell id="5Tj5UYbUs8pz7HhZuKM2-8" value="" style="shape=triangle;direction=south;fillColor=#343A40;strokeColor=none;perimeter=none;" parent="5Tj5UYbUs8pz7HhZuKM2-7" vertex="1">
          <mxGeometry x="1" y="0.5" width="7" height="3" relative="1" as="geometry">
            <mxPoint x="-17" y="1" as="offset" />
          </mxGeometry>
        </mxCell>
        <mxCell id="5Tj5UYbUs8pz7HhZuKM2-9" value="" style="shape=triangle;direction=north;fillColor=#343A40;strokeColor=none;perimeter=none;" parent="5Tj5UYbUs8pz7HhZuKM2-7" vertex="1">
          <mxGeometry x="1" y="0.5" width="7" height="3" relative="1" as="geometry">
            <mxPoint x="-17" y="-4" as="offset" />
          </mxGeometry>
        </mxCell>
        <mxCell id="5Tj5UYbUs8pz7HhZuKM2-10" value="40 дка" style="rounded=1;align=center;fillColor=#F1F2F4;strokeColor=none;html=1;fontColor=#596780;fontSize=12" parent="5Tj5UYbUs8pz7HhZuKM2-1" vertex="1">
          <mxGeometry x="420" y="240" width="120" height="40" as="geometry" />
        </mxCell>
        <mxCell id="5Tj5UYbUs8pz7HhZuKM2-11" value="с.Балканци" style="html=1;shadow=0;dashed=0;shape=mxgraph.bootstrap.rrect;rSize=5;fillColor=#ffffff;strokeColor=#CED4DA;align=left;spacing=15;fontSize=14;fontColor=#6C767D;" parent="5Tj5UYbUs8pz7HhZuKM2-1" vertex="1">
          <mxGeometry x="20" y="240" width="360" height="40" as="geometry" />
        </mxCell>
        <mxCell id="5Tj5UYbUs8pz7HhZuKM2-12" value="" style="shape=triangle;direction=south;fillColor=#343A40;strokeColor=none;perimeter=none;" parent="5Tj5UYbUs8pz7HhZuKM2-11" vertex="1">
          <mxGeometry x="1" y="0.5" width="7" height="3" relative="1" as="geometry">
            <mxPoint x="-17" y="1" as="offset" />
          </mxGeometry>
        </mxCell>
        <mxCell id="5Tj5UYbUs8pz7HhZuKM2-13" value="" style="shape=triangle;direction=north;fillColor=#343A40;strokeColor=none;perimeter=none;" parent="5Tj5UYbUs8pz7HhZuKM2-11" vertex="1">
          <mxGeometry x="1" y="0.5" width="7" height="3" relative="1" as="geometry">
            <mxPoint x="-17" y="-4" as="offset" />
          </mxGeometry>
        </mxCell>
        <mxCell id="5Tj5UYbUs8pz7HhZuKM2-14" value="&lt;b&gt;Име на даващ&lt;/b&gt;" style="text;html=1;strokeColor=none;fillColor=none;align=center;verticalAlign=middle;whiteSpace=wrap;rounded=0;" parent="5Tj5UYbUs8pz7HhZuKM2-1" vertex="1">
          <mxGeometry x="20" y="130" width="110" height="20" as="geometry" />
        </mxCell>
        <mxCell id="5Tj5UYbUs8pz7HhZuKM2-15" value="&lt;b&gt;Землище&lt;/b&gt;" style="text;html=1;strokeColor=none;fillColor=none;align=center;verticalAlign=middle;whiteSpace=wrap;rounded=0;" parent="5Tj5UYbUs8pz7HhZuKM2-1" vertex="1">
          <mxGeometry x="20" y="210" width="90" height="20" as="geometry" />
        </mxCell>
        <mxCell id="5Tj5UYbUs8pz7HhZuKM2-16" value="&lt;b&gt;Налични&lt;/b&gt;" style="text;html=1;strokeColor=none;fillColor=none;align=center;verticalAlign=middle;whiteSpace=wrap;rounded=0;" parent="5Tj5UYbUs8pz7HhZuKM2-1" vertex="1">
          <mxGeometry x="435" y="210" width="90" height="20" as="geometry" />
        </mxCell>
        <mxCell id="5Tj5UYbUs8pz7HhZuKM2-17" value="20 дка" style="rounded=1;align=center;fillColor=#F1F2F4;strokeColor=none;html=1;fontColor=#596780;fontSize=12" parent="5Tj5UYbUs8pz7HhZuKM2-1" vertex="1">
          <mxGeometry x="420" y="160" width="120" height="40" as="geometry" />
        </mxCell>
        <mxCell id="5Tj5UYbUs8pz7HhZuKM2-18" value="&lt;b&gt;Дава&lt;/b&gt;" style="text;html=1;strokeColor=none;fillColor=none;align=center;verticalAlign=middle;whiteSpace=wrap;rounded=0;" parent="5Tj5UYbUs8pz7HhZuKM2-1" vertex="1">
          <mxGeometry x="435" y="130" width="90" height="20" as="geometry" />
        </mxCell>
        <mxCell id="5Tj5UYbUs8pz7HhZuKM2-19" value="&lt;b&gt;Име на взимащ&lt;/b&gt;" style="text;html=1;strokeColor=none;fillColor=none;align=center;verticalAlign=middle;whiteSpace=wrap;rounded=0;" parent="5Tj5UYbUs8pz7HhZuKM2-1" vertex="1">
          <mxGeometry x="20" y="300" width="110" height="20" as="geometry" />
        </mxCell>
        <mxCell id="5Tj5UYbUs8pz7HhZuKM2-20" value="Сделка" style="rounded=1;fillColor=#0057D8;align=center;strokeColor=none;html=1;fontColor=#ffffff;fontSize=12" parent="5Tj5UYbUs8pz7HhZuKM2-1" vertex="1">
          <mxGeometry x="420" y="330" width="120" height="40" as="geometry" />
        </mxCell>
        <mxCell id="5Tj5UYbUs8pz7HhZuKM2-22" value="" style="strokeWidth=1;shadow=0;dashed=0;align=center;html=1;shape=mxgraph.mockup.containers.browserWindow;rSize=0;strokeColor=#666666;strokeColor2=#008cff;strokeColor3=#c4c4c4;mainText=,;recursiveResize=0;" parent="1" vertex="1">
          <mxGeometry x="-760" y="610" width="610" height="410" as="geometry" />
        </mxCell>
        <mxCell id="5Tj5UYbUs8pz7HhZuKM2-23" value="Page 1" style="strokeWidth=1;shadow=0;dashed=0;align=center;html=1;shape=mxgraph.mockup.containers.anchor;fontSize=17;fontColor=#666666;align=left;" parent="5Tj5UYbUs8pz7HhZuKM2-22" vertex="1">
          <mxGeometry x="60" y="12" width="110" height="26" as="geometry" />
        </mxCell>
        <mxCell id="5Tj5UYbUs8pz7HhZuKM2-24" value="https://www.draw.io" style="strokeWidth=1;shadow=0;dashed=0;align=center;html=1;shape=mxgraph.mockup.containers.anchor;rSize=0;fontSize=17;fontColor=#666666;align=left;" parent="5Tj5UYbUs8pz7HhZuKM2-22" vertex="1">
          <mxGeometry x="130" y="60" width="250" height="26" as="geometry" />
        </mxCell>
        <mxCell id="5Tj5UYbUs8pz7HhZuKM2-25" value="Петър Петров" style="html=1;shadow=0;dashed=0;shape=mxgraph.bootstrap.rrect;rSize=5;fillColor=#ffffff;strokeColor=#CED4DA;align=left;spacing=15;fontSize=14;fontColor=#6C767D;" parent="5Tj5UYbUs8pz7HhZuKM2-22" vertex="1">
          <mxGeometry x="20" y="160" width="360" height="40" as="geometry" />
        </mxCell>
        <mxCell id="5Tj5UYbUs8pz7HhZuKM2-26" value="" style="shape=triangle;direction=south;fillColor=#343A40;strokeColor=none;perimeter=none;" parent="5Tj5UYbUs8pz7HhZuKM2-25" vertex="1">
          <mxGeometry x="1" y="0.5" width="7" height="3" relative="1" as="geometry">
            <mxPoint x="-17" y="1" as="offset" />
          </mxGeometry>
        </mxCell>
        <mxCell id="5Tj5UYbUs8pz7HhZuKM2-27" value="" style="shape=triangle;direction=north;fillColor=#343A40;strokeColor=none;perimeter=none;" parent="5Tj5UYbUs8pz7HhZuKM2-25" vertex="1">
          <mxGeometry x="1" y="0.5" width="7" height="3" relative="1" as="geometry">
            <mxPoint x="-17" y="-4" as="offset" />
          </mxGeometry>
        </mxCell>
        <mxCell id="5Tj5UYbUs8pz7HhZuKM2-28" value="Тодор Тодоров" style="html=1;shadow=0;dashed=0;shape=mxgraph.bootstrap.rrect;rSize=5;fillColor=#ffffff;strokeColor=#CED4DA;align=left;spacing=15;fontSize=14;fontColor=#6C767D;" parent="5Tj5UYbUs8pz7HhZuKM2-22" vertex="1">
          <mxGeometry x="20" y="330" width="360" height="40" as="geometry" />
        </mxCell>
        <mxCell id="5Tj5UYbUs8pz7HhZuKM2-29" value="" style="shape=triangle;direction=south;fillColor=#343A40;strokeColor=none;perimeter=none;" parent="5Tj5UYbUs8pz7HhZuKM2-28" vertex="1">
          <mxGeometry x="1" y="0.5" width="7" height="3" relative="1" as="geometry">
            <mxPoint x="-17" y="1" as="offset" />
          </mxGeometry>
        </mxCell>
        <mxCell id="5Tj5UYbUs8pz7HhZuKM2-30" value="" style="shape=triangle;direction=north;fillColor=#343A40;strokeColor=none;perimeter=none;" parent="5Tj5UYbUs8pz7HhZuKM2-28" vertex="1">
          <mxGeometry x="1" y="0.5" width="7" height="3" relative="1" as="geometry">
            <mxPoint x="-17" y="-4" as="offset" />
          </mxGeometry>
        </mxCell>
        <mxCell id="5Tj5UYbUs8pz7HhZuKM2-31" value="&lt;font color=&quot;#ff0000&quot;&gt;10 дка&lt;/font&gt;" style="rounded=1;align=center;fillColor=#F1F2F4;strokeColor=none;html=1;fontColor=#596780;fontSize=12" parent="5Tj5UYbUs8pz7HhZuKM2-22" vertex="1">
          <mxGeometry x="420" y="240" width="120" height="40" as="geometry" />
        </mxCell>
        <mxCell id="5Tj5UYbUs8pz7HhZuKM2-32" value="с.Балканци" style="html=1;shadow=0;dashed=0;shape=mxgraph.bootstrap.rrect;rSize=5;fillColor=#ffffff;strokeColor=#CED4DA;align=left;spacing=15;fontSize=14;fontColor=#6C767D;" parent="5Tj5UYbUs8pz7HhZuKM2-22" vertex="1">
          <mxGeometry x="20" y="240" width="360" height="40" as="geometry" />
        </mxCell>
        <mxCell id="5Tj5UYbUs8pz7HhZuKM2-33" value="" style="shape=triangle;direction=south;fillColor=#343A40;strokeColor=none;perimeter=none;" parent="5Tj5UYbUs8pz7HhZuKM2-32" vertex="1">
          <mxGeometry x="1" y="0.5" width="7" height="3" relative="1" as="geometry">
            <mxPoint x="-17" y="1" as="offset" />
          </mxGeometry>
        </mxCell>
        <mxCell id="5Tj5UYbUs8pz7HhZuKM2-34" value="" style="shape=triangle;direction=north;fillColor=#343A40;strokeColor=none;perimeter=none;" parent="5Tj5UYbUs8pz7HhZuKM2-32" vertex="1">
          <mxGeometry x="1" y="0.5" width="7" height="3" relative="1" as="geometry">
            <mxPoint x="-17" y="-4" as="offset" />
          </mxGeometry>
        </mxCell>
        <mxCell id="5Tj5UYbUs8pz7HhZuKM2-35" value="&lt;b&gt;Име на даващ&lt;/b&gt;" style="text;html=1;strokeColor=none;fillColor=none;align=center;verticalAlign=middle;whiteSpace=wrap;rounded=0;" parent="5Tj5UYbUs8pz7HhZuKM2-22" vertex="1">
          <mxGeometry x="20" y="130" width="110" height="20" as="geometry" />
        </mxCell>
        <mxCell id="5Tj5UYbUs8pz7HhZuKM2-36" value="&lt;b&gt;Землище&lt;/b&gt;" style="text;html=1;strokeColor=none;fillColor=none;align=center;verticalAlign=middle;whiteSpace=wrap;rounded=0;" parent="5Tj5UYbUs8pz7HhZuKM2-22" vertex="1">
          <mxGeometry x="20" y="210" width="90" height="20" as="geometry" />
        </mxCell>
        <mxCell id="5Tj5UYbUs8pz7HhZuKM2-37" value="&lt;b&gt;Налични&lt;/b&gt;" style="text;html=1;strokeColor=none;fillColor=none;align=center;verticalAlign=middle;whiteSpace=wrap;rounded=0;" parent="5Tj5UYbUs8pz7HhZuKM2-22" vertex="1">
          <mxGeometry x="435" y="210" width="90" height="20" as="geometry" />
        </mxCell>
        <mxCell id="5Tj5UYbUs8pz7HhZuKM2-38" value="20 дка" style="rounded=1;align=center;fillColor=#F1F2F4;strokeColor=none;html=1;fontColor=#596780;fontSize=12" parent="5Tj5UYbUs8pz7HhZuKM2-22" vertex="1">
          <mxGeometry x="420" y="160" width="120" height="40" as="geometry" />
        </mxCell>
        <mxCell id="5Tj5UYbUs8pz7HhZuKM2-39" value="&lt;b&gt;Дава&lt;/b&gt;" style="text;html=1;strokeColor=none;fillColor=none;align=center;verticalAlign=middle;whiteSpace=wrap;rounded=0;" parent="5Tj5UYbUs8pz7HhZuKM2-22" vertex="1">
          <mxGeometry x="435" y="130" width="90" height="20" as="geometry" />
        </mxCell>
        <mxCell id="5Tj5UYbUs8pz7HhZuKM2-40" value="&lt;b&gt;Име на взимащ&lt;/b&gt;" style="text;html=1;strokeColor=none;fillColor=none;align=center;verticalAlign=middle;whiteSpace=wrap;rounded=0;" parent="5Tj5UYbUs8pz7HhZuKM2-22" vertex="1">
          <mxGeometry x="20" y="300" width="110" height="20" as="geometry" />
        </mxCell>
        <mxCell id="5Tj5UYbUs8pz7HhZuKM2-41" value="&lt;font color=&quot;#8c8c8c&quot;&gt;Сделка&lt;/font&gt;" style="rounded=1;align=center;html=1;fontSize=12;fillColor=#f5f5f5;strokeColor=#666666;fontColor=#333333;" parent="5Tj5UYbUs8pz7HhZuKM2-22" vertex="1">
          <mxGeometry x="420" y="330" width="120" height="40" as="geometry" />
        </mxCell>
      </root>
    </mxGraphModel>
  </diagram>
</mxfile>
